<svg xmlns="http://www.w3.org/2000/svg" width="24" height="24" viewBox="0 0 24 24" fill="none" stroke="currentColor" stroke-width="2" stroke-linecap="round" stroke-linejoin="round"><path d="M12 2C8 2 6 4 6 7v2h6v1H5C3 10 2 12 2 14s1 4 4 4h1v-3c0-2 1-3 3-3h4c2 0 4-1 4-4V7c0-3-2-5-6-5z"/><path d="M12 22c4 0 6-2 6-5v-2h-6v-1h7c2 0 3-2 3-4s-1-4-4-4h-1v3c0 2-1 3-3 3H10c-2 0-4 1-4 4v3c0 3 2 5 6 5z"/><circle cx="9" cy="6" r="0.5" fill="currentColor"/><circle cx="15" cy="18" r="0.5" fill="currentColor"/></svg>
