<svg xmlns="http://www.w3.org/2000/svg" width="24" height="24" viewBox="0 0 24 24" fill="none" stroke="currentColor" stroke-width="2" stroke-linecap="round" stroke-linejoin="round"><path d="M14.5 10a1.5 1.5 0 1 1-3 0V4a1.5 1.5 0 0 1 3 0z"/><path d="M20 10a1.5 1.5 0 0 1-1.5 1.5H17V9a1.5 1.5 0 0 1 3 0z"/><path d="M9.5 14a1.5 1.5 0 1 1 3 0v6a1.5 1.5 0 0 1-3 0z"/><path d="M4 14a1.5 1.5 0 0 1 1.5-1.5H7V15a1.5 1.5 0 0 1-3 0z"/><path d="M10 4.5a1.5 1.5 0 0 1 1.5-1.5H13a1.5 1.5 0 0 1 0 3H10z"/><path d="M14 20a1.5 1.5 0 0 1-1.5 1.5H11a1.5 1.5 0 0 1 0-3h3z"/></svg>
