<?xml version="1.0" encoding="UTF-8"?>
<svg xmlns="http://www.w3.org/2000/svg" xmlns:xlink="http://www.w3.org/1999/xlink" style="display:none">
  <symbol id="activity" viewBox="0 0 24 24">
    <polyline points="22 12 18 12 15 21 9 3 6 12 2 12"/>
  </symbol>
  <symbol id="alarm" viewBox="0 0 24 24">
    <circle cx="12" cy="13" r="8"/><path d="M12 9v4l2 2"/><path d="M5 3 2 6"/><path d="m22 6-3-3"/>
  </symbol>
  <symbol id="anchor" viewBox="0 0 24 24">
    <circle cx="12" cy="5" r="3"/><line x1="12" y1="8" x2="12" y2="22"/><path d="M5 12H2a10 10 0 0 0 20 0h-3"/>
  </symbol>
  <symbol id="angular" viewBox="0 0 24 24">
    <polygon points="12 2 21 6 19 17 12 22 5 17 3 6 12 2"/><polyline points="12 2 8 14 12 12 16 14 12 2"/>
  </symbol>
  <symbol id="aperture" viewBox="0 0 24 24">
    <circle cx="12" cy="12" r="10"/><line x1="14.31" y1="8" x2="20.05" y2="17.94"/><line x1="9.69" y1="8" x2="21.17" y2="8"/><line x1="7.38" y1="12" x2="13.12" y2="2.06"/><line x1="9.69" y1="16" x2="3.95" y2="6.06"/><line x1="14.31" y1="16" x2="2.83" y2="16"/><line x1="16.62" y1="12" x2="10.88" y2="21.94"/>
  </symbol>
  <symbol id="archive" viewBox="0 0 24 24">
    <polyline points="21 8 21 21 3 21 3 8"/><rect x="1" y="3" width="22" height="5"/><line x1="10" y1="12" x2="14" y2="12"/>
  </symbol>
  <symbol id="arrow-down" viewBox="0 0 24 24">
    <path d="M12 5v14"/><path d="m19 12-7 7-7-7"/>
  </symbol>
  <symbol id="arrow-left" viewBox="0 0 24 24">
    <path d="m12 19-7-7 7-7"/><path d="M19 12H5"/>
  </symbol>
  <symbol id="arrow-right" viewBox="0 0 24 24">
    <path d="M5 12h14"/><path d="m12 5 7 7-7 7"/>
  </symbol>
  <symbol id="arrow-up" viewBox="0 0 24 24">
    <path d="m5 12 7-7 7 7"/><path d="M12 19V5"/>
  </symbol>
  <symbol id="astro" viewBox="0 0 24 24">
    <path d="M9 4l3 16 3-16"/><path d="M5 12c1-3 3-5 7-5s6 2 7 5"/>
  </symbol>
  <symbol id="at-sign" viewBox="0 0 24 24">
    <circle cx="12" cy="12" r="4"/><path d="M16 8v5a3 3 0 0 0 6 0v-1a10 10 0 1 0-3.92 7.94"/>
  </symbol>
  <symbol id="award" viewBox="0 0 24 24">
    <circle cx="12" cy="8" r="6"/><path d="M15.477 12.89 17 22l-5-3-5 3 1.523-9.11"/>
  </symbol>
  <symbol id="aws" viewBox="0 0 24 24">
    <path d="M6 16l-3 3 3 3"/><path d="M18 16l3 3-3 3"/><path d="M3 19h18"/><path d="M7 10l3-7h4l3 7"/><path d="M7 10h10"/><path d="M9 7h6"/>
  </symbol>
  <symbol id="azure" viewBox="0 0 24 24">
    <path d="M13 4L3 20h7l9-12z"/><path d="M21 20l-7-9-3 5h10z"/>
  </symbol>
  <symbol id="bar-chart-2" viewBox="0 0 24 24">
    <line x1="18" x2="18" y1="20" y2="10"/><line x1="12" x2="12" y1="20" y2="4"/><line x1="6" x2="6" y1="20" y2="14"/>
  </symbol>
  <symbol id="bar-chart" viewBox="0 0 24 24">
    <line x1="12" x2="12" y1="20" y2="10"/><line x1="18" x2="18" y1="20" y2="4"/><line x1="6" x2="6" y1="20" y2="16"/>
  </symbol>
  <symbol id="battery" viewBox="0 0 24 24">
    <rect width="16" height="10" x="2" y="7" rx="2" ry="2"/><line x1="22" x2="22" y1="11" y2="13"/>
  </symbol>
  <symbol id="bell-off" viewBox="0 0 24 24">
    <path d="M13.73 21a2 2 0 0 1-3.46 0"/><path d="M18.63 13A17.89 17.89 0 0 1 18 8"/><path d="M6.26 6.26A5.86 5.86 0 0 0 6 8c0 7-3 9-3 9h14"/><path d="M18 8a6 6 0 0 0-9.33-5"/><line x1="1" y1="1" x2="23" y2="23"/>
  </symbol>
  <symbol id="bell" viewBox="0 0 24 24">
    <path d="M6 8a6 6 0 0 1 12 0c0 7 3 9 3 9H3s3-2 3-9"/><path d="M10.3 21a1.94 1.94 0 0 0 3.4 0"/>
  </symbol>
  <symbol id="bluetooth" viewBox="0 0 24 24">
    <polyline points="6.5 6.5 17.5 17.5 12 23 12 1 17.5 6.5 6.5 17.5"/>
  </symbol>
  <symbol id="book" viewBox="0 0 24 24">
    <path d="M4 19.5A2.5 2.5 0 0 1 6.5 17H20"/><path d="M6.5 2H20v20H6.5A2.5 2.5 0 0 1 4 19.5v-15A2.5 2.5 0 0 1 6.5 2z"/>
  </symbol>
  <symbol id="bookmark" viewBox="0 0 24 24">
    <path d="m19 21-7-4-7 4V5a2 2 0 0 1 2-2h10a2 2 0 0 1 2 2v16z"/>
  </symbol>
  <symbol id="box" viewBox="0 0 24 24">
    <path d="M21 16V8a2 2 0 0 0-1-1.73l-7-4a2 2 0 0 0-2 0l-7 4A2 2 0 0 0 3 8v8a2 2 0 0 0 1 1.73l7 4a2 2 0 0 0 2 0l7-4A2 2 0 0 0 21 16z"/><polyline points="3.27 6.96 12 12.01 20.73 6.96"/><line x1="12" y1="22.08" x2="12" y2="12"/>
  </symbol>
  <symbol id="briefcase" viewBox="0 0 24 24">
    <rect x="2" y="7" width="20" height="14" rx="2" ry="2"/><path d="M16 21V5a2 2 0 0 0-2-2h-4a2 2 0 0 0-2 2v16"/>
  </symbol>
  <symbol id="calendar" viewBox="0 0 24 24">
    <rect width="18" height="18" x="3" y="4" rx="2" ry="2"/><line x1="16" x2="16" y1="2" y2="6"/><line x1="8" x2="8" y1="2" y2="6"/><line x1="3" x2="21" y1="10" y2="10"/>
  </symbol>
  <symbol id="camera" viewBox="0 0 24 24">
    <path d="M14.5 4h-5L7 7H4a2 2 0 0 0-2 2v9a2 2 0 0 0 2 2h16a2 2 0 0 0 2-2V9a2 2 0 0 0-2-2h-3l-2.5-3z"/><circle cx="12" cy="13" r="3"/>
  </symbol>
  <symbol id="cast" viewBox="0 0 24 24">
    <path d="M2 16.1A5 5 0 0 1 5.9 20M2 12.05A9 9 0 0 1 9.95 20M2 8V6a2 2 0 0 1 2-2h16a2 2 0 0 1 2 2v12a2 2 0 0 1-2 2h-6"/><line x1="2" y1="20" x2="2.01" y2="20"/>
  </symbol>
  <symbol id="check-square" viewBox="0 0 24 24">
    <path d="m9 11 3 3L22 4"/><path d="M21 12v7a2 2 0 0 1-2 2H5a2 2 0 0 1-2-2V5a2 2 0 0 1 2-2h11"/>
  </symbol>
  <symbol id="check" viewBox="0 0 24 24">
    <path d="M20 6 9 17l-5-5"/>
  </symbol>
  <symbol id="chevron-down" viewBox="0 0 24 24">
    <path d="m6 9 6 6 6-6"/>
  </symbol>
  <symbol id="chevron-left" viewBox="0 0 24 24">
    <path d="m15 18-6-6 6-6"/>
  </symbol>
  <symbol id="chevron-right" viewBox="0 0 24 24">
    <path d="m9 18 6-6-6-6"/>
  </symbol>
  <symbol id="chevron-up" viewBox="0 0 24 24">
    <path d="m18 15-6-6-6 6"/>
  </symbol>
  <symbol id="circle-check" viewBox="0 0 24 24">
    <circle cx="12" cy="12" r="10"/><path d="m9 12 2 2 4-4"/>
  </symbol>
  <symbol id="circle-x" viewBox="0 0 24 24">
    <circle cx="12" cy="12" r="10"/><path d="m15 9-6 6"/><path d="m9 9 6 6"/>
  </symbol>
  <symbol id="claude" viewBox="0 0 24 24">
    <path d="M12 2a9 9 0 0 1 9 9c0 3-1.5 5.5-4 7l-5 4-5-4C4.5 16.5 3 14 3 11a9 9 0 0 1 9-9z"/><path d="M9 11h6"/><path d="M12 8v6"/>
  </symbol>
  <symbol id="clock-1" viewBox="0 0 24 24">
    <circle cx="12" cy="12" r="10"/><polyline points="12 6 12 12 14.00 8.52"/>
  </symbol>
  <symbol id="clock-10" viewBox="0 0 24 24">
    <circle cx="12" cy="12" r="10"/><polyline points="12 6 12 12 8.56 10.04"/>
  </symbol>
  <symbol id="clock-11" viewBox="0 0 24 24">
    <circle cx="12" cy="12" r="10"/><polyline points="12 6 12 12 10.04 8.56"/>
  </symbol>
  <symbol id="clock-12" viewBox="0 0 24 24">
    <circle cx="12" cy="12" r="10"/><polyline points="12 6 12 12 12 8.04"/>
  </symbol>
  <symbol id="clock-2" viewBox="0 0 24 24">
    <circle cx="12" cy="12" r="10"/><polyline points="12 6 12 12 15.44 10.00"/>
  </symbol>
  <symbol id="clock-3" viewBox="0 0 24 24">
    <circle cx="12" cy="12" r="10"/><polyline points="12 6 12 12 16.00 11.96"/>
  </symbol>
  <symbol id="clock-4" viewBox="0 0 24 24">
    <circle cx="12" cy="12" r="10"/><polyline points="12 6 12 12 15.44 13.96"/>
  </symbol>
  <symbol id="clock-5" viewBox="0 0 24 24">
    <circle cx="12" cy="12" r="10"/><polyline points="12 6 12 12 13.96 15.44"/>
  </symbol>
  <symbol id="clock-6" viewBox="0 0 24 24">
    <circle cx="12" cy="12" r="10"/><polyline points="12 6 12 12 12 15.96"/>
  </symbol>
  <symbol id="clock-7" viewBox="0 0 24 24">
    <circle cx="12" cy="12" r="10"/><polyline points="12 6 12 12 10.00 15.48"/>
  </symbol>
  <symbol id="clock-8" viewBox="0 0 24 24">
    <circle cx="12" cy="12" r="10"/><polyline points="12 6 12 12 8.56 14.00"/>
  </symbol>
  <symbol id="clock-9" viewBox="0 0 24 24">
    <circle cx="12" cy="12" r="10"/><polyline points="12 6 12 12 8.00 12.04"/>
  </symbol>
  <symbol id="clock-countdown" viewBox="0 0 24 24">
    <circle cx="12" cy="12" r="10"/><polyline points="12 6 12 12 16 14"/><path d="M9 2h6"/>
  </symbol>
  <symbol id="clock-deadline" viewBox="0 0 24 24">
    <circle cx="12" cy="12" r="10"/><polyline points="12 6 12 12 16 14"/><line x1="22" y1="2" x2="18" y2="6"/>
  </symbol>
  <symbol id="clock-face" viewBox="0 0 24 24">
    <circle cx="12" cy="12" r="10"/><path d="M12 6v1"/><path d="M12 17v1"/><path d="M6 12H7"/><path d="M17 12h1"/>
  </symbol>
  <symbol id="clock" viewBox="0 0 24 24">
    <circle cx="12" cy="12" r="10"/><polyline points="12 6 12 12 16 14"/>
  </symbol>
  <symbol id="close" viewBox="0 0 24 24">
    <path d="M18 6 6 18"/><path d="m6 6 12 12"/>
  </symbol>
  <symbol id="cloud-download" viewBox="0 0 24 24">
    <path d="M4 14.899A7 7 0 1 1 15.71 8h1.79a4.5 4.5 0 0 1 2.5 8.242"/><path d="M12 12v9"/><path d="m8 17 4 4 4-4"/>
  </symbol>
  <symbol id="cloud-upload" viewBox="0 0 24 24">
    <path d="M4 14.899A7 7 0 1 1 15.71 8h1.79a4.5 4.5 0 0 1 2.5 8.242"/><path d="M12 12v9"/><path d="m16 16-4-4-4 4"/>
  </symbol>
  <symbol id="cloud" viewBox="0 0 24 24">
    <path d="M17.5 19H9a7 7 0 1 1 6.71-9h1.79a4.5 4.5 0 1 1 0 9Z"/>
  </symbol>
  <symbol id="code" viewBox="0 0 24 24">
    <polyline points="16 18 22 12 16 6"/><polyline points="8 6 2 12 8 18"/>
  </symbol>
  <symbol id="columns" viewBox="0 0 24 24">
    <rect width="18" height="18" x="3" y="3" rx="2" ry="2"/><line x1="12" x2="12" y1="3" y2="21"/>
  </symbol>
  <symbol id="compass" viewBox="0 0 24 24">
    <circle cx="12" cy="12" r="10"/><polygon points="16.24 7.76 14.12 14.12 7.76 16.24 9.88 9.88 16.24 7.76"/>
  </symbol>
  <symbol id="copilot" viewBox="0 0 24 24">
    <circle cx="12" cy="10" r="6"/><circle cx="9" cy="9" r="1.5"/><circle cx="15" cy="9" r="1.5"/><path d="M9 14s1 1 3 1 3-1 3-1"/><path d="M6 20c2-2 10-2 12 0"/>
  </symbol>
  <symbol id="copy" viewBox="0 0 24 24">
    <rect width="14" height="14" x="8" y="8" rx="2" ry="2"/><path d="M4 16c-1.1 0-2-.9-2-2V4c0-1.1.9-2 2-2h10c1.1 0 2 .9 2 2"/>
  </symbol>
  <symbol id="cpu" viewBox="0 0 24 24">
    <rect width="16" height="16" x="4" y="4" rx="2"/><rect width="6" height="6" x="9" y="9" rx="1"/><path d="M15 2v2"/><path d="M15 20v2"/><path d="M2 15h2"/><path d="M2 9h2"/><path d="M20 15h2"/><path d="M20 9h2"/><path d="M9 2v2"/><path d="M9 20v2"/>
  </symbol>
  <symbol id="credit-card" viewBox="0 0 24 24">
    <rect width="20" height="14" x="2" y="5" rx="2"/><line x1="2" x2="22" y1="10" y2="10"/>
  </symbol>
  <symbol id="crop" viewBox="0 0 24 24">
    <path d="M6.13 1L6 16a2 2 0 0 0 2 2h15"/><path d="M1 6.13L16 6a2 2 0 0 1 2 2v15"/>
  </symbol>
  <symbol id="cucumber" viewBox="0 0 24 24">
    <path d="M12 2C7 2 4 6 4 11c0 6 4 10 8 11 4-1 8-5 8-11 0-5-3-9-8-9z"/><line x1="12" y1="8" x2="12" y2="16"/><line x1="8" y1="12" x2="16" y2="12"/>
  </symbol>
  <symbol id="cursor" viewBox="0 0 24 24">
    <path d="M4 4l7 18 3-7 7-3z"/><path d="M14 14l5 5"/>
  </symbol>
  <symbol id="cypress" viewBox="0 0 24 24">
    <circle cx="12" cy="12" r="10"/><path d="M16 12a4 4 0 1 1-8 0"/><path d="M12 8v8"/>
  </symbol>
  <symbol id="dart" viewBox="0 0 24 24">
    <path d="M4 4l6-2 10 10-10 10-6-2V4z"/><circle cx="14" cy="12" r="3"/>
  </symbol>
  <symbol id="database" viewBox="0 0 24 24">
    <ellipse cx="12" cy="5" rx="9" ry="3"/><path d="M3 5V19A9 3 0 0 0 21 19V5"/><path d="M3 12A9 3 0 0 0 21 12"/>
  </symbol>
  <symbol id="disc" viewBox="0 0 24 24">
    <circle cx="12" cy="12" r="10"/><circle cx="12" cy="12" r="3"/>
  </symbol>
  <symbol id="docker" viewBox="0 0 24 24">
    <rect x="1" y="9" width="3" height="3"/><rect x="5" y="9" width="3" height="3"/><rect x="9" y="9" width="3" height="3"/><rect x="5" y="5" width="3" height="3"/><rect x="9" y="5" width="3" height="3"/><rect x="9" y="1" width="3" height="3"/><path d="M22 12a5 5 0 0 0-5-5H1v6c0 3 3 4 5 4h11a5 5 0 0 0 5-5z"/><path d="M19 12c2 0 3-1 3-2"/>
  </symbol>
  <symbol id="download" viewBox="0 0 24 24">
    <path d="M21 15v4a2 2 0 0 1-2 2H5a2 2 0 0 1-2-2v-4"/><polyline points="7 10 12 15 17 10"/><line x1="12" x2="12" y1="15" y2="3"/>
  </symbol>
  <symbol id="drag" viewBox="0 0 24 24">
    <circle cx="9" cy="5" r="1"/><circle cx="9" cy="12" r="1"/><circle cx="9" cy="19" r="1"/><circle cx="15" cy="5" r="1"/><circle cx="15" cy="12" r="1"/><circle cx="15" cy="19" r="1"/>
  </symbol>
  <symbol id="edit" viewBox="0 0 24 24">
    <path d="M11 4H4a2 2 0 0 0-2 2v14a2 2 0 0 0 2 2h14a2 2 0 0 0 2-2v-7"/><path d="M18.5 2.5a2.121 2.121 0 0 1 3 3L12 15l-4 1 1-4 9.5-9.5z"/>
  </symbol>
  <symbol id="esbuild" viewBox="0 0 24 24">
    <path d="M3 12h18"/><path d="M3 6l9-4 9 4"/><path d="M3 18l9 4 9-4"/><path d="M12 2v20"/>
  </symbol>
  <symbol id="external-link" viewBox="0 0 24 24">
    <path d="M18 13v6a2 2 0 0 1-2 2H5a2 2 0 0 1-2-2V8a2 2 0 0 1 2-2h6"/><polyline points="15 3 21 3 21 9"/><line x1="10" x2="21" y1="14" y2="3"/>
  </symbol>
  <symbol id="eye-off" viewBox="0 0 24 24">
    <path d="M9.88 9.88a3 3 0 1 0 4.24 4.24"/><path d="M10.73 5.08A10.43 10.43 0 0 1 12 5c7 0 10 7 10 7a13.16 13.16 0 0 1-1.67 2.68"/><path d="M6.61 6.61A13.526 13.526 0 0 0 2 12s3 7 10 7a9.74 9.74 0 0 0 5.39-1.61"/><line x1="2" x2="22" y1="2" y2="22"/>
  </symbol>
  <symbol id="eye" viewBox="0 0 24 24">
    <path d="M2 12s3-7 10-7 10 7 10 7-3 7-10 7-10-7-10-7Z"/><circle cx="12" cy="12" r="3"/>
  </symbol>
  <symbol id="figma" viewBox="0 0 24 24">
    <path d="M8 2h8a3 3 0 0 1 0 6H8z"/><path d="M8 8h5a3 3 0 0 1 0 6H8z"/><path d="M8 14h3a3 3 0 0 1 0 6H8z"/><circle cx="16" cy="11" r="3"/>
  </symbol>
  <symbol id="file-image" viewBox="0 0 24 24">
    <path d="M15 2H6a2 2 0 0 0-2 2v16a2 2 0 0 0 2 2h12a2 2 0 0 0 2-2V7Z"/><path d="M14 2v4a2 2 0 0 0 2 2h4"/><circle cx="10" cy="14" r="2"/><path d="m20 17-1.296-1.296a2.41 2.41 0 0 0-3.408 0L9 22"/>
  </symbol>
  <symbol id="file-text" viewBox="0 0 24 24">
    <path d="M15 2H6a2 2 0 0 0-2 2v16a2 2 0 0 0 2 2h12a2 2 0 0 0 2-2V7Z"/><path d="M14 2v4a2 2 0 0 0 2 2h4"/><path d="M10 9H8"/><path d="M16 13H8"/><path d="M16 17H8"/>
  </symbol>
  <symbol id="file" viewBox="0 0 24 24">
    <path d="M15 2H6a2 2 0 0 0-2 2v16a2 2 0 0 0 2 2h12a2 2 0 0 0 2-2V7Z"/><path d="M14 2v4a2 2 0 0 0 2 2h4"/>
  </symbol>
  <symbol id="filter" viewBox="0 0 24 24">
    <polygon points="22 3 2 3 10 12.46 10 19 14 21 14 12.46 22 3"/>
  </symbol>
  <symbol id="firebase" viewBox="0 0 24 24">
    <path d="M12 22L4 14l4-8 2 4 2-6 2 4 4-8-6 20z"/><path d="M4 14l8 8 8-8"/>
  </symbol>
  <symbol id="flag" viewBox="0 0 24 24">
    <path d="M4 15s1-1 4-1 5 2 8 2 4-1 4-1V3s-1 1-4 1-5-2-8-2-4 1-4 1z"/><line x1="4" x2="4" y1="22" y2="15"/>
  </symbol>
  <symbol id="flutter" viewBox="0 0 24 24">
    <path d="M13 2l-9 9 4 4 13-13z"/><path d="M8 17l4 4h9l-9-9z"/>
  </symbol>
  <symbol id="folder-open" viewBox="0 0 24 24">
    <path d="m6 14 1.5-2.9A2 2 0 0 1 9.24 10H20a2 2 0 0 1 1.94 2.5l-1.54 6a2 2 0 0 1-1.95 1.5H4a2 2 0 0 1-2-2V5a2 2 0 0 1 2-2h3.9a2 2 0 0 1 1.69.9l.81 1.2a2 2 0 0 0 1.67.9H18a2 2 0 0 1 2 2v2"/>
  </symbol>
  <symbol id="folder" viewBox="0 0 24 24">
    <path d="M20 20a2 2 0 0 0 2-2V8a2 2 0 0 0-2-2h-7.9a2 2 0 0 1-1.69-.9L9.6 3.9A2 2 0 0 0 7.93 3H4a2 2 0 0 0-2 2v13a2 2 0 0 0 2 2Z"/>
  </symbol>
  <symbol id="gatsby" viewBox="0 0 24 24">
    <circle cx="12" cy="12" r="10"/><path d="M12 12H2"/><path d="M12 2c5.5 0 10 4.5 10 10"/><path d="M4 20l8-8"/>
  </symbol>
  <symbol id="gcp" viewBox="0 0 24 24">
    <path d="M12 2a10 10 0 1 0 10 10"/><path d="M22 12h-6"/><path d="M16 12a4 4 0 0 1-4-4V2"/><path d="M16 8l2-2 2 2"/>
  </symbol>
  <symbol id="gemini" viewBox="0 0 24 24">
    <path d="M12 2c0 10-10 10-10 10s10 0 10 10c0-10 10-10 10-10S12 12 12 2z"/>
  </symbol>
  <symbol id="gift" viewBox="0 0 24 24">
    <rect x="3" y="8" width="18" height="4" rx="1"/><path d="M12 8v13"/><path d="M19 12v7a2 2 0 0 1-2 2H7a2 2 0 0 1-2-2v-7"/><path d="M7.5 8a2.5 2.5 0 0 1 0-5A4.8 8 0 0 1 12 8a4.8 8 0 0 1 4.5-5 2.5 2.5 0 0 1 0 5"/>
  </symbol>
  <symbol id="github" viewBox="0 0 24 24">
    <path d="M15 22v-4a4.8 4.8 0 0 0-1-3.5c3 0 6-2 6-5.5.08-1.25-.27-2.48-1-3.5.28-1.15.28-2.35 0-3.5 0 0-1 0-3 1.5-2.64-.5-5.36-.5-8 0C6 2 5 2 5 2c-.3 1.15-.3 2.35 0 3.5A5.403 5.403 0 0 0 4 9c0 3.5 3 5.5 6 5.5-.39.49-.68 1.05-.85 1.65-.17.6-.22 1.23-.15 1.85v4"/><path d="M9 18c-4.51 2-5-2-7-2"/>
  </symbol>
  <symbol id="globe" viewBox="0 0 24 24">
    <circle cx="12" cy="12" r="10"/><path d="M12 2a14.5 14.5 0 0 0 0 20 14.5 14.5 0 0 0 0-20"/><path d="M2 12h20"/>
  </symbol>
  <symbol id="go" viewBox="0 0 24 24">
    <path d="M3 10h8v4H7a4 4 0 0 1 0-8h1"/><circle cx="18" cy="12" r="4"/><line x1="18" y1="8" x2="22" y2="8"/>
  </symbol>
  <symbol id="graphql" viewBox="0 0 24 24">
    <circle cx="12" cy="4" r="2"/><circle cx="4" cy="20" r="2"/><circle cx="20" cy="20" r="2"/><circle cx="4" cy="12" r="2"/><circle cx="20" cy="12" r="2"/><path d="M12 6l-6.5 5.5"/><path d="M12 6l6.5 5.5"/><path d="M5.5 13.5L6 18"/><path d="M18.5 13.5L18 18"/><path d="M6 18h12"/>
  </symbol>
  <symbol id="grid" viewBox="0 0 24 24">
    <rect width="7" height="7" x="3" y="3" rx="1"/><rect width="7" height="7" x="14" y="3" rx="1"/><rect width="7" height="7" x="14" y="14" rx="1"/><rect width="7" height="7" x="3" y="14" rx="1"/>
  </symbol>
  <symbol id="heart" viewBox="0 0 24 24">
    <path d="M19 14c1.49-1.46 3-3.21 3-5.5A5.5 5.5 0 0 0 16.5 3c-1.76 0-3 .5-4.5 2-1.5-1.5-2.74-2-4.5-2A5.5 5.5 0 0 0 2 8.5c0 2.3 1.5 4.05 3 5.5l7 7Z"/>
  </symbol>
  <symbol id="home" viewBox="0 0 24 24">
    <path d="m3 9 9-7 9 7v11a2 2 0 0 1-2 2H5a2 2 0 0 1-2-2z"/><polyline points="9 22 9 12 15 12 15 22"/>
  </symbol>
  <symbol id="hourglass" viewBox="0 0 24 24">
    <path d="M5 22h14"/><path d="M5 2h14"/><path d="M17 22v-4.172a2 2 0 0 0-.586-1.414L12 12l-4.414 4.414A2 2 0 0 0 7 17.828V22"/><path d="M7 2v4.172a2 2 0 0 0 .586 1.414L12 12l4.414-4.414A2 2 0 0 0 17 6.172V2"/>
  </symbol>
  <symbol id="image" viewBox="0 0 24 24">
    <rect width="18" height="18" x="3" y="3" rx="2" ry="2"/><circle cx="9" cy="9" r="2"/><path d="m21 15-3.086-3.086a2 2 0 0 0-2.828 0L6 21"/>
  </symbol>
  <symbol id="inbox" viewBox="0 0 24 24">
    <polyline points="22 12 16 12 14 15 10 15 8 12 2 12"/><path d="M5.45 5.11 2 12v6a2 2 0 0 0 2 2h16a2 2 0 0 0 2-2v-6l-3.45-6.89A2 2 0 0 0 16.76 4H7.24a2 2 0 0 0-1.79 1.11z"/>
  </symbol>
  <symbol id="info" viewBox="0 0 24 24">
    <circle cx="12" cy="12" r="10"/><path d="M12 16v-4"/><path d="M12 8h.01"/>
  </symbol>
  <symbol id="instagram" viewBox="0 0 24 24">
    <rect width="20" height="20" x="2" y="2" rx="5" ry="5"/><path d="M16 11.37A4 4 0 1 1 12.63 8 4 4 0 0 1 16 11.37z"/><line x1="17.5" x2="17.51" y1="6.5" y2="6.5"/>
  </symbol>
  <symbol id="java" viewBox="0 0 24 24">
    <path d="M8 16c0 2 2 3 4 3s4-1 4-3-2-2-4-2-4-1-4-3 2-3 4-3 4 1 4 3"/><path d="M12 6V4"/><path d="M12 22v-3"/><path d="M6 20c-2-1-2-3 0-4"/><path d="M18 20c2-1 2-3 0-4"/>
  </symbol>
  <symbol id="javascript" viewBox="0 0 24 24">
    <rect x="2" y="2" width="20" height="20" rx="2"/><path d="M7 16v-4a2 2 0 0 1 4 0v4"/><path d="M15 8v8"/><path d="M13 14a2 2 0 0 0 4 0"/>
  </symbol>
  <symbol id="jest" viewBox="0 0 24 24">
    <path d="M9 3H5a2 2 0 0 0-2 2v4"/><path d="M15 3h4a2 2 0 0 1 2 2v4"/><path d="M3 15v4a2 2 0 0 0 2 2h4"/><path d="M21 15v4a2 2 0 0 1-2 2h-4"/><circle cx="12" cy="12" r="4"/><path d="M12 10v4"/><path d="M10 12h4"/>
  </symbol>
  <symbol id="key" viewBox="0 0 24 24">
    <circle cx="7.5" cy="15.5" r="5.5"/><path d="m21 2-9.6 9.6"/><path d="m15.5 7.5 3 3L22 7l-3-3"/>
  </symbol>
  <symbol id="kotlin" viewBox="0 0 24 24">
    <path d="M3 3h9L3 12l9 9H3z"/><path d="M21 3L12 12l9 9"/>
  </symbol>
  <symbol id="kubernetes" viewBox="0 0 24 24">
    <circle cx="12" cy="12" r="3"/><path d="M12 2v4"/><path d="M12 18v4"/><path d="M4.93 4.93l2.83 2.83"/><path d="M16.24 16.24l2.83 2.83"/><path d="M2 12h4"/><path d="M18 12h4"/><path d="M4.93 19.07l2.83-2.83"/><path d="M16.24 7.76l2.83-2.83"/>
  </symbol>
  <symbol id="laptop" viewBox="0 0 24 24">
    <path d="M20 16V7a2 2 0 0 0-2-2H6a2 2 0 0 0-2 2v9m16 0H4m16 0 1.28 2.55a1 1 0 0 1-.9 1.45H3.62a1 1 0 0 1-.9-1.45L4 16"/>
  </symbol>
  <symbol id="layers" viewBox="0 0 24 24">
    <polygon points="12 2 2 7 12 12 22 7 12 2"/><polyline points="2 17 12 22 22 17"/><polyline points="2 12 12 17 22 12"/>
  </symbol>
  <symbol id="layout" viewBox="0 0 24 24">
    <rect width="18" height="18" x="3" y="3" rx="2" ry="2"/><line x1="3" x2="21" y1="9" y2="9"/><line x1="9" x2="9" y1="21" y2="9"/>
  </symbol>
  <symbol id="link-off" viewBox="0 0 24 24">
    <path d="m18.84 12.25 1.72-1.71h-.02a5.004 5.004 0 0 0-.12-7.07 5.006 5.006 0 0 0-6.95 0l-1.72 1.71"/><path d="m5.17 11.75-1.71 1.71a5.004 5.004 0 0 0 .12 7.07 5.006 5.006 0 0 0 6.95 0l1.71-1.71"/><line x1="8" x2="8" y1="2" y2="5"/><line x1="2" x2="5" y1="8" y2="8"/><line x1="16" x2="16" y1="19" y2="22"/><line x1="19" x2="22" y1="16" y2="16"/>
  </symbol>
  <symbol id="link" viewBox="0 0 24 24">
    <path d="M10 13a5 5 0 0 0 7.54.54l3-3a5 5 0 0 0-7.07-7.07l-1.72 1.71"/><path d="M14 11a5 5 0 0 0-7.54-.54l-3 3a5 5 0 0 0 7.07 7.07l1.71-1.71"/>
  </symbol>
  <symbol id="linkedin" viewBox="0 0 24 24">
    <path d="M16 8a6 6 0 0 1 6 6v7h-4v-7a2 2 0 0 0-2-2 2 2 0 0 0-2 2v7h-4v-7a6 6 0 0 1 6-6z"/><rect width="4" height="12" x="2" y="9"/><circle cx="4" cy="4" r="2"/>
  </symbol>
  <symbol id="list" viewBox="0 0 24 24">
    <line x1="8" x2="21" y1="6" y2="6"/><line x1="8" x2="21" y1="12" y2="12"/><line x1="8" x2="21" y1="18" y2="18"/><line x1="3" x2="3.01" y1="6" y2="6"/><line x1="3" x2="3.01" y1="12" y2="12"/><line x1="3" x2="3.01" y1="18" y2="18"/>
  </symbol>
  <symbol id="loader" viewBox="0 0 24 24">
    <line x1="12" x2="12" y1="2" y2="6"/><line x1="12" x2="12" y1="18" y2="22"/><line x1="4.93" x2="7.76" y1="4.93" y2="7.76"/><line x1="16.24" x2="19.07" y1="16.24" y2="19.07"/><line x1="2" x2="6" y1="12" y2="12"/><line x1="18" x2="22" y1="12" y2="12"/><line x1="4.93" x2="7.76" y1="19.07" y2="16.24"/><line x1="16.24" x2="19.07" y1="7.76" y2="4.93"/>
  </symbol>
  <symbol id="lock" viewBox="0 0 24 24">
    <rect width="18" height="11" x="3" y="11" rx="2" ry="2"/><path d="M7 11V7a5 5 0 0 1 10 0v4"/>
  </symbol>
  <symbol id="mail" viewBox="0 0 24 24">
    <rect width="20" height="16" x="2" y="4" rx="2"/><path d="m22 7-8.97 5.7a1.94 1.94 0 0 1-2.06 0L2 7"/>
  </symbol>
  <symbol id="map-pin" viewBox="0 0 24 24">
    <path d="M20 10c0 6-8 12-8 12s-8-6-8-12a8 8 0 0 1 16 0Z"/><circle cx="12" cy="10" r="3"/>
  </symbol>
  <symbol id="map" viewBox="0 0 24 24">
    <polygon points="3 6 9 3 15 6 21 3 21 18 15 21 9 18 3 21"/><line x1="9" x2="9" y1="3" y2="18"/><line x1="15" x2="15" y1="6" y2="21"/>
  </symbol>
  <symbol id="maximize" viewBox="0 0 24 24">
    <path d="M8 3H5a2 2 0 0 0-2 2v3"/><path d="M21 8V5a2 2 0 0 0-2-2h-3"/><path d="M3 16v3a2 2 0 0 0 2 2h3"/><path d="M16 21h3a2 2 0 0 0 2-2v-3"/>
  </symbol>
  <symbol id="menu" viewBox="0 0 24 24">
    <line x1="4" x2="20" y1="12" y2="12"/><line x1="4" x2="20" y1="6" y2="6"/><line x1="4" x2="20" y1="18" y2="18"/>
  </symbol>
  <symbol id="message-circle" viewBox="0 0 24 24">
    <path d="M7.9 20A9 9 0 1 0 4 16.1L2 22Z"/>
  </symbol>
  <symbol id="message" viewBox="0 0 24 24">
    <path d="M21 15a2 2 0 0 1-2 2H7l-4 4V5a2 2 0 0 1 2-2h14a2 2 0 0 1 2 2z"/>
  </symbol>
  <symbol id="mic-off" viewBox="0 0 24 24">
    <line x1="2" x2="22" y1="2" y2="22"/><path d="M18.89 13.23A7.12 7.12 0 0 0 19 12v-2"/><path d="M5 10v2a7 7 0 0 0 12 5"/><path d="M15 9.34V5a3 3 0 0 0-5.68-1.33"/><path d="M9 9v3a3 3 0 0 0 5.12 2.12"/><line x1="12" x2="12" y1="19" y2="22"/>
  </symbol>
  <symbol id="mic" viewBox="0 0 24 24">
    <path d="M12 2a3 3 0 0 0-3 3v7a3 3 0 0 0 6 0V5a3 3 0 0 0-3-3Z"/><path d="M19 10v2a7 7 0 0 1-14 0v-2"/><line x1="12" x2="12" y1="19" y2="22"/>
  </symbol>
  <symbol id="minimize" viewBox="0 0 24 24">
    <path d="M8 3v3a2 2 0 0 1-2 2H3"/><path d="M21 8h-3a2 2 0 0 1-2-2V3"/><path d="M3 16h3a2 2 0 0 1 2 2v3"/><path d="M16 21v-3a2 2 0 0 1 2-2h3"/>
  </symbol>
  <symbol id="minus" viewBox="0 0 24 24">
    <line x1="5" x2="19" y1="12" y2="12"/>
  </symbol>
  <symbol id="mongodb" viewBox="0 0 24 24">
    <path d="M12 2C8 2 5 6 5 10c0 5 4 10 7 12 3-2 7-7 7-12 0-4-3-8-7-8z"/><path d="M12 2v20"/>
  </symbol>
  <symbol id="monitor" viewBox="0 0 24 24">
    <rect width="20" height="14" x="2" y="3" rx="2"/><line x1="8" x2="16" y1="21" y2="21"/><line x1="12" x2="12" y1="17" y2="21"/>
  </symbol>
  <symbol id="moon" viewBox="0 0 24 24">
    <path d="M12 3a6 6 0 0 0 9 9 9 9 0 1 1-9-9Z"/>
  </symbol>
  <symbol id="more-horizontal" viewBox="0 0 24 24">
    <circle cx="12" cy="12" r="1"/><circle cx="19" cy="12" r="1"/><circle cx="5" cy="12" r="1"/>
  </symbol>
  <symbol id="more-vertical" viewBox="0 0 24 24">
    <circle cx="12" cy="12" r="1"/><circle cx="12" cy="5" r="1"/><circle cx="12" cy="19" r="1"/>
  </symbol>
  <symbol id="navigation" viewBox="0 0 24 24">
    <polygon points="3 11 22 2 13 21 11 13 3 11"/>
  </symbol>
  <symbol id="netlify" viewBox="0 0 24 24">
    <path d="M9 8H5l7 8 7-8h-4V4H9z"/><path d="M2 17h20"/><path d="M6 20h12"/>
  </symbol>
  <symbol id="nextjs" viewBox="0 0 24 24">
    <circle cx="12" cy="12" r="10"/><path d="M8 8l8 8"/><path d="M16 8v8"/>
  </symbol>
  <symbol id="nodejs" viewBox="0 0 24 24">
    <path d="M12 2l9 5v10l-9 5-9-5V7z"/><path d="M12 7v10"/><path d="M7 9.5l5 3 5-3"/>
  </symbol>
  <symbol id="notion" viewBox="0 0 24 24">
    <rect x="3" y="3" width="18" height="18" rx="2"/><path d="M7 7l4 8 4-8"/><path d="M9 11h6"/>
  </symbol>
  <symbol id="nuxt" viewBox="0 0 24 24">
    <path d="M2 19l7-13 4 7"/><path d="M16 19h6l-6-11-3 5"/>
  </symbol>
  <symbol id="openai" viewBox="0 0 24 24">
    <path d="M12 6C9 6 6 8 6 11s2 5 5 5h1l3 2V14h1c3 0 5-2 5-5s-3-5-6-5z" transform="rotate(30 12 12)"/><circle cx="12" cy="12" r="2"/>
  </symbol>
  <symbol id="package" viewBox="0 0 24 24">
    <path d="m7.5 4.27 9 5.15"/><path d="M21 8a2 2 0 0 0-1-1.73l-7-4a2 2 0 0 0-2 0l-7 4A2 2 0 0 0 3 8v8a2 2 0 0 0 1 1.73l7 4a2 2 0 0 0 2 0l7-4A2 2 0 0 0 21 16Z"/><path d="m3.3 7 8.7 5 8.7-5"/><path d="M12 22V12"/>
  </symbol>
  <symbol id="paperclip" viewBox="0 0 24 24">
    <path d="m21.44 11.05-9.19 9.19a6 6 0 0 1-8.49-8.49l8.57-8.57A4 4 0 1 1 18 8.84l-8.59 8.57a2 2 0 0 1-2.83-2.83l8.49-8.48"/>
  </symbol>
  <symbol id="pause" viewBox="0 0 24 24">
    <rect x="14" y="4" width="4" height="16" rx="1"/><rect x="6" y="4" width="4" height="16" rx="1"/>
  </symbol>
  <symbol id="phone" viewBox="0 0 24 24">
    <path d="M22 16.92v3a2 2 0 0 1-2.18 2 19.79 19.79 0 0 1-8.63-3.07A19.5 19.5 0 0 1 4.69 13a19.79 19.79 0 0 1-3.07-8.67A2 2 0 0 1 3.6 2h3a2 2 0 0 1 2 1.72c.127.96.361 1.903.7 2.81a2 2 0 0 1-.45 2.11L8.09 9.91a16 16 0 0 0 6 6l1.27-1.27a2 2 0 0 1 2.11-.45c.907.339 1.85.573 2.81.7A2 2 0 0 1 22 16.92z"/>
  </symbol>
  <symbol id="php" viewBox="0 0 24 24">
    <ellipse cx="12" cy="12" rx="10" ry="6"/><path d="M7 10h3a2 2 0 0 1 0 4H7V8"/><path d="M14 14l1-6 3 5 3-5 1 6"/>
  </symbol>
  <symbol id="pie-chart" viewBox="0 0 24 24">
    <path d="M21.21 15.89A10 10 0 1 1 8 2.83"/><path d="M22 12A10 10 0 0 0 12 2v10z"/>
  </symbol>
  <symbol id="play" viewBox="0 0 24 24">
    <polygon points="6 3 20 12 6 21 6 3"/>
  </symbol>
  <symbol id="plus" viewBox="0 0 24 24">
    <line x1="12" x2="12" y1="5" y2="19"/><line x1="5" x2="19" y1="12" y2="12"/>
  </symbol>
  <symbol id="postgresql" viewBox="0 0 24 24">
    <ellipse cx="12" cy="5" rx="9" ry="3"/><path d="M3 5v14c0 1.66 4.03 3 9 3s9-1.34 9-3V5"/><path d="M3 12c0 1.66 4.03 3 9 3s9-1.34 9-3"/>
  </symbol>
  <symbol id="printer" viewBox="0 0 24 24">
    <polyline points="6 9 6 2 18 2 18 9"/><path d="M6 18H4a2 2 0 0 1-2-2v-5a2 2 0 0 1 2-2h16a2 2 0 0 1 2 2v5a2 2 0 0 1-2 2h-2"/><rect width="12" height="8" x="6" y="14"/>
  </symbol>
  <symbol id="prisma" viewBox="0 0 24 24">
    <path d="M3 22l16-9L11 2 3 22z"/><path d="M3 22l8-4"/>
  </symbol>
  <symbol id="python" viewBox="0 0 24 24">
    <path d="M12 2C8 2 6 4 6 7v2h6v1H5C3 10 2 12 2 14s1 4 4 4h1v-3c0-2 1-3 3-3h4c2 0 4-1 4-4V7c0-3-2-5-6-5z"/><path d="M12 22c4 0 6-2 6-5v-2h-6v-1h7c2 0 3-2 3-4s-1-4-4-4h-1v3c0 2-1 3-3 3H10c-2 0-4 1-4 4v3c0 3 2 5 6 5z"/><circle cx="9" cy="6" r="0.5" fill="currentColor"/><circle cx="15" cy="18" r="0.5" fill="currentColor"/>
  </symbol>
  <symbol id="react" viewBox="0 0 24 24">
    <ellipse cx="12" cy="12" rx="2" ry="2"/><ellipse cx="12" cy="12" rx="10" ry="4"/><ellipse cx="12" cy="12" rx="10" ry="4" transform="rotate(60 12 12)"/><ellipse cx="12" cy="12" rx="10" ry="4" transform="rotate(120 12 12)"/>
  </symbol>
  <symbol id="redis" viewBox="0 0 24 24">
    <ellipse cx="12" cy="8" rx="9" ry="3"/><path d="M3 8v5c0 1.66 4.03 3 9 3s9-1.34 9-3V8"/><path d="M3 13v3c0 1.66 4.03 3 9 3s9-1.34 9-3v-3"/>
  </symbol>
  <symbol id="refresh" viewBox="0 0 24 24">
    <path d="M3 12a9 9 0 0 1 9-9 9.75 9.75 0 0 1 6.74 2.74L21 8"/><path d="M21 3v5h-5"/><path d="M21 12a9 9 0 0 1-9 9 9.75 9.75 0 0 1-6.74-2.74L3 16"/><path d="M8 16H3v5"/>
  </symbol>
  <symbol id="remix" viewBox="0 0 24 24">
    <path d="M4 4h8a4 4 0 0 1 0 8H4z"/><path d="M12 12l4 8H4l4-8"/><path d="M16 12h4"/>
  </symbol>
  <symbol id="rollup" viewBox="0 0 24 24">
    <circle cx="12" cy="12" r="4"/><path d="M3 12a9 9 0 0 1 9-9"/><path d="M21 12a9 9 0 0 1-9 9"/><path d="M12 3l3 3-3 3"/><path d="M12 21l-3-3 3-3"/>
  </symbol>
  <symbol id="rotate-ccw" viewBox="0 0 24 24">
    <path d="M3 2v6h6"/><path d="M3 13a9 9 0 1 0 3-7.7L3 8"/>
  </symbol>
  <symbol id="rotate-cw" viewBox="0 0 24 24">
    <path d="M21 2v6h-6"/><path d="M21 13a9 9 0 1 1-3-7.7L21 8"/>
  </symbol>
  <symbol id="ruby" viewBox="0 0 24 24">
    <path d="M6 4l12 2 2 12-14 2z"/><path d="M6 4L4 18"/><path d="M20 18H4"/>
  </symbol>
  <symbol id="rust" viewBox="0 0 24 24">
    <circle cx="12" cy="12" r="9"/><path d="M8 8h5a2 2 0 0 1 0 4H8z"/><path d="M13 12l3 4"/><path d="M8 12v4"/>
  </symbol>
  <symbol id="search" viewBox="0 0 24 24">
    <circle cx="11" cy="11" r="8"/><path d="m21 21-4.35-4.35"/>
  </symbol>
  <symbol id="send" viewBox="0 0 24 24">
    <path d="m22 2-7 20-4-9-9-4Z"/><path d="M22 2 11 13"/>
  </symbol>
  <symbol id="server" viewBox="0 0 24 24">
    <rect width="20" height="8" x="2" y="2" rx="2" ry="2"/><rect width="20" height="8" x="2" y="14" rx="2" ry="2"/><line x1="6" x2="6.01" y1="6" y2="6"/><line x1="6" x2="6.01" y1="18" y2="18"/>
  </symbol>
  <symbol id="settings" viewBox="0 0 24 24">
    <path d="M12.22 2h-.44a2 2 0 0 0-2 2v.18a2 2 0 0 1-1 1.73l-.43.25a2 2 0 0 1-2 0l-.15-.08a2 2 0 0 0-2.73.73l-.22.38a2 2 0 0 0 .73 2.73l.15.1a2 2 0 0 1 1 1.72v.51a2 2 0 0 1-1 1.74l-.15.09a2 2 0 0 0-.73 2.73l.22.38a2 2 0 0 0 2.73.73l.15-.08a2 2 0 0 1 2 0l.43.25a2 2 0 0 1 1 1.73V20a2 2 0 0 0 2 2h.44a2 2 0 0 0 2-2v-.18a2 2 0 0 1 1-1.73l.43-.25a2 2 0 0 1 2 0l.15.08a2 2 0 0 0 2.73-.73l.22-.39a2 2 0 0 0-.73-2.73l-.15-.08a2 2 0 0 1-1-1.74v-.5a2 2 0 0 1 1-1.74l.15-.09a2 2 0 0 0 .73-2.73l-.22-.38a2 2 0 0 0-2.73-.73l-.15.08a2 2 0 0 1-2 0l-.43-.25a2 2 0 0 1-1-1.73V4a2 2 0 0 0-2-2z"/><circle cx="12" cy="12" r="3"/>
  </symbol>
  <symbol id="share" viewBox="0 0 24 24">
    <circle cx="18" cy="5" r="3"/><circle cx="6" cy="12" r="3"/><circle cx="18" cy="19" r="3"/><line x1="8.59" x2="15.42" y1="13.51" y2="17.49"/><line x1="15.41" x2="8.59" y1="6.51" y2="10.49"/>
  </symbol>
  <symbol id="shield-check" viewBox="0 0 24 24">
    <path d="M20 13c0 5-3.5 7.5-7.66 8.95a1 1 0 0 1-.67-.01C7.5 20.5 4 18 4 13V6a1 1 0 0 1 1-1c2 0 4.5-1.2 6.24-2.72a1.17 1.17 0 0 1 1.52 0C14.51 3.81 17 5 19 5a1 1 0 0 1 1 1z"/><path d="m9 12 2 2 4-4"/>
  </symbol>
  <symbol id="shield" viewBox="0 0 24 24">
    <path d="M20 13c0 5-3.5 7.5-7.66 8.95a1 1 0 0 1-.67-.01C7.5 20.5 4 18 4 13V6a1 1 0 0 1 1-1c2 0 4.5-1.2 6.24-2.72a1.17 1.17 0 0 1 1.52 0C14.51 3.81 17 5 19 5a1 1 0 0 1 1 1z"/>
  </symbol>
  <symbol id="shopping-cart" viewBox="0 0 24 24">
    <circle cx="8" cy="21" r="1"/><circle cx="19" cy="21" r="1"/><path d="M2.05 2.05h2l2.66 12.42a2 2 0 0 0 2 1.58h9.78a2 2 0 0 0 1.95-1.57l1.65-7.43H5.12"/>
  </symbol>
  <symbol id="sidebar" viewBox="0 0 24 24">
    <rect width="18" height="18" x="3" y="3" rx="2" ry="2"/><path d="M9 3v18"/>
  </symbol>
  <symbol id="skip-back" viewBox="0 0 24 24">
    <polygon points="19 20 9 12 19 4 19 20"/><line x1="5" x2="5" y1="19" y2="5"/>
  </symbol>
  <symbol id="skip-forward" viewBox="0 0 24 24">
    <polygon points="5 4 15 12 5 20 5 4"/><line x1="19" x2="19" y1="5" y2="19"/>
  </symbol>
  <symbol id="slack" viewBox="0 0 24 24">
    <path d="M14.5 10a1.5 1.5 0 1 1-3 0V4a1.5 1.5 0 0 1 3 0z"/><path d="M20 10a1.5 1.5 0 0 1-1.5 1.5H17V9a1.5 1.5 0 0 1 3 0z"/><path d="M9.5 14a1.5 1.5 0 1 1 3 0v6a1.5 1.5 0 0 1-3 0z"/><path d="M4 14a1.5 1.5 0 0 1 1.5-1.5H7V15a1.5 1.5 0 0 1-3 0z"/><path d="M10 4.5a1.5 1.5 0 0 1 1.5-1.5H13a1.5 1.5 0 0 1 0 3H10z"/><path d="M14 20a1.5 1.5 0 0 1-1.5 1.5H11a1.5 1.5 0 0 1 0-3h3z"/>
  </symbol>
  <symbol id="smartphone" viewBox="0 0 24 24">
    <rect width="14" height="20" x="5" y="2" rx="2" ry="2"/><path d="M12 18h.01"/>
  </symbol>
  <symbol id="sort" viewBox="0 0 24 24">
    <line x1="8" x2="21" y1="6" y2="6"/><line x1="8" x2="21" y1="12" y2="12"/><line x1="8" x2="21" y1="18" y2="18"/><line x1="3" x2="3.01" y1="6" y2="6"/><line x1="3" x2="3.01" y1="12" y2="12"/><line x1="3" x2="3.01" y1="18" y2="18"/>
  </symbol>
  <symbol id="star" viewBox="0 0 24 24">
    <polygon points="12 2 15.09 8.26 22 9.27 17 14.14 18.18 21.02 12 17.77 5.82 21.02 7 14.14 2 9.27 8.91 8.26 12 2"/>
  </symbol>
  <symbol id="stop" viewBox="0 0 24 24">
    <rect x="3" y="3" width="18" height="18" rx="2"/>
  </symbol>
  <symbol id="storybook" viewBox="0 0 24 24">
    <rect x="4" y="2" width="12" height="20" rx="2"/><path d="M4 8h12"/><circle cx="13" cy="5" r="1"/><path d="M8 12h5"/><path d="M8 16h3"/>
  </symbol>
  <symbol id="sun" viewBox="0 0 24 24">
    <circle cx="12" cy="12" r="4"/><path d="M12 2v2"/><path d="M12 20v2"/><path d="m4.93 4.93 1.41 1.41"/><path d="m17.66 17.66 1.41 1.41"/><path d="M2 12h2"/><path d="M20 12h2"/><path d="m6.34 17.66-1.41 1.41"/><path d="m19.07 4.93-1.41 1.41"/>
  </symbol>
  <symbol id="supabase" viewBox="0 0 24 24">
    <path d="M13 2L3 14h9l-1 8 10-12h-9l1-8z"/>
  </symbol>
  <symbol id="svelte" viewBox="0 0 24 24">
    <path d="M20 8c0-3-2-6-8-6C5 2 3 7 5 11c-3 1-4 4-3 6 1 3 4 5 8 5s7-2 8-5c1-2 0-4-2-5 2-1 4-4 4-4z"/><path d="M9 16c2 1 5 0 6-2"/>
  </symbol>
  <symbol id="swift" viewBox="0 0 24 24">
    <path d="M20 6C18 3 13 2 9 4 5 6 3 10 4 14c-2-1-3-3-3-5 1 3 3 5 6 6-1 2-1 4 1 5 4 2 9 0 11-4 1-2 1-5 1-10z"/>
  </symbol>
  <symbol id="tablet" viewBox="0 0 24 24">
    <rect width="16" height="20" x="4" y="2" rx="2" ry="2"/><line x1="12" x2="12.01" y1="18" y2="18"/>
  </symbol>
  <symbol id="tag" viewBox="0 0 24 24">
    <path d="M12.586 2.586A2 2 0 0 0 11.172 2H4a2 2 0 0 0-2 2v7.172a2 2 0 0 0 .586 1.414l8.704 8.704a2.426 2.426 0 0 0 3.42 0l6.58-6.58a2.426 2.426 0 0 0 0-3.42z"/><circle cx="7.5" cy="7.5" r=".5" fill="currentColor"/>
  </symbol>
  <symbol id="tailwind" viewBox="0 0 24 24">
    <path d="M2 12c2-8 6-8 8 0s6 8 8 0"/><path d="M2 18c2-8 6-8 8 0s6 8 8 0"/>
  </symbol>
  <symbol id="terminal" viewBox="0 0 24 24">
    <polyline points="4 17 10 11 4 5"/><line x1="12" x2="20" y1="19" y2="19"/>
  </symbol>
  <symbol id="thumbs-down" viewBox="0 0 24 24">
    <path d="M17 14V2"/><path d="M9 18.12 10 14H4.17a2 2 0 0 1-1.92-2.56l2.33-8A2 2 0 0 1 6.5 2H20a2 2 0 0 1 2 2v8a2 2 0 0 1-2 2h-2.76a2 2 0 0 0-1.79 1.11L12 22a3.13 3.13 0 0 1-3-3.88Z"/>
  </symbol>
  <symbol id="thumbs-up" viewBox="0 0 24 24">
    <path d="M7 10v12"/><path d="M15 5.88 14 10h5.83a2 2 0 0 1 1.92 2.56l-2.33 8A2 2 0 0 1 17.5 22H4a2 2 0 0 1-2-2v-8a2 2 0 0 1 2-2h2.76a2 2 0 0 0 1.79-1.11L12 2a3.13 3.13 0 0 1 3 3.88Z"/>
  </symbol>
  <symbol id="timer" viewBox="0 0 24 24">
    <circle cx="12" cy="13" r="8"/><path d="M12 9v4l2 2"/><path d="M5 3 2 6"/><path d="m22 6-3-3"/><path d="M6.38 18.7 4 21"/><path d="M17.64 18.67 20 21"/>
  </symbol>
  <symbol id="trash" viewBox="0 0 24 24">
    <polyline points="3 6 5 6 21 6"/><path d="M19 6v14a2 2 0 0 1-2 2H7a2 2 0 0 1-2-2V6m3 0V4a1 1 0 0 1 1-1h4a1 1 0 0 1 1 1v2"/>
  </symbol>
  <symbol id="trending-down" viewBox="0 0 24 24">
    <polyline points="22 17 13.5 8.5 8.5 13.5 2 7"/><polyline points="16 17 22 17 22 11"/>
  </symbol>
  <symbol id="trending-up" viewBox="0 0 24 24">
    <polyline points="22 7 13.5 15.5 8.5 10.5 2 17"/><polyline points="16 7 22 7 22 13"/>
  </symbol>
  <symbol id="truck" viewBox="0 0 24 24">
    <path d="M14 18V6a2 2 0 0 0-2-2H4a2 2 0 0 0-2 2v11a1 1 0 0 0 1 1h2"/><path d="M15 18H9"/><path d="M19 18h2a1 1 0 0 0 1-1v-3.65a1 1 0 0 0-.22-.624l-3.48-4.35A1 1 0 0 0 17.52 8H14"/><circle cx="17" cy="18" r="2"/><circle cx="7" cy="18" r="2"/>
  </symbol>
  <symbol id="twitter" viewBox="0 0 24 24">
    <path d="M22 4s-.7 2.1-2 3.4c1.6 10-9.4 17.3-18 11.6 2.2.1 4.4-.6 6-2C3 15.5.5 9.6 3 5c2.2 2.6 5.6 4.1 9 4-.9-4.2 4-6.6 7-3.8 1.1 0 3-1.2 3-1.2z"/>
  </symbol>
  <symbol id="typescript" viewBox="0 0 24 24">
    <rect x="2" y="2" width="20" height="20" rx="2"/><path d="M10 8H6"/><path d="M8 8v8"/><path d="M14 16v-6a2 2 0 0 1 4 0"/><path d="M14 13h4"/>
  </symbol>
  <symbol id="unlock" viewBox="0 0 24 24">
    <rect width="18" height="11" x="3" y="11" rx="2" ry="2"/><path d="M7 11V7a5 5 0 0 1 9.9-1"/>
  </symbol>
  <symbol id="upload" viewBox="0 0 24 24">
    <path d="M21 15v4a2 2 0 0 1-2 2H5a2 2 0 0 1-2-2v-4"/><polyline points="17 8 12 3 7 8"/><line x1="12" x2="12" y1="3" y2="15"/>
  </symbol>
  <symbol id="user-minus" viewBox="0 0 24 24">
    <path d="M16 21v-2a4 4 0 0 0-4-4H6a4 4 0 0 0-4 4v2"/><circle cx="9" cy="7" r="4"/><line x1="22" x2="16" y1="11" y2="11"/>
  </symbol>
  <symbol id="user-plus" viewBox="0 0 24 24">
    <path d="M16 21v-2a4 4 0 0 0-4-4H6a4 4 0 0 0-4 4v2"/><circle cx="9" cy="7" r="4"/><line x1="19" x2="19" y1="8" y2="14"/><line x1="22" x2="16" y1="11" y2="11"/>
  </symbol>
  <symbol id="user" viewBox="0 0 24 24">
    <path d="M20 21v-2a4 4 0 0 0-4-4H8a4 4 0 0 0-4 4v2"/><circle cx="12" cy="7" r="4"/>
  </symbol>
  <symbol id="users" viewBox="0 0 24 24">
    <path d="M16 21v-2a4 4 0 0 0-4-4H6a4 4 0 0 0-4 4v2"/><circle cx="9" cy="7" r="4"/><path d="M22 21v-2a4 4 0 0 0-3-3.87"/><path d="M16 3.13a4 4 0 0 1 0 7.75"/>
  </symbol>
  <symbol id="vercel" viewBox="0 0 24 24">
    <path d="M12 2l10 19H2z"/>
  </symbol>
  <symbol id="video-off" viewBox="0 0 24 24">
    <path d="M10.66 6H14a2 2 0 0 1 2 2v2.5l5.248-3.062A.5.5 0 0 1 22 7.87v8.196"/><path d="M16 16a2 2 0 0 1-2 2H4a2 2 0 0 1-2-2V8a2 2 0 0 1 2-2h2"/><line x1="2" x2="22" y1="2" y2="22"/>
  </symbol>
  <symbol id="video" viewBox="0 0 24 24">
    <path d="m22 8-6 4 6 4V8z"/><rect width="14" height="12" x="2" y="6" rx="2" ry="2"/>
  </symbol>
  <symbol id="vite" viewBox="0 0 24 24">
    <path d="M21 3L12 22 9 15 3 12z"/><path d="M12 3l-3 9h9z"/>
  </symbol>
  <symbol id="volume-off" viewBox="0 0 24 24">
    <polygon points="11 5 6 9 2 9 2 15 6 15 11 19 11 5"/><line x1="22" x2="16" y1="9" y2="15"/><line x1="16" x2="22" y1="9" y2="15"/>
  </symbol>
  <symbol id="volume" viewBox="0 0 24 24">
    <polygon points="11 5 6 9 2 9 2 15 6 15 11 19 11 5"/><path d="M19.07 4.93a10 10 0 0 1 0 14.14"/><path d="M15.54 8.46a5 5 0 0 1 0 7.07"/>
  </symbol>
  <symbol id="vscode" viewBox="0 0 24 24">
    <path d="M16 2l5 5-5 5"/><path d="M3 12l5-5"/><path d="M3 12l5 5 13-10"/>
  </symbol>
  <symbol id="vue" viewBox="0 0 24 24">
    <polyline points="1 4 12 21 23 4"/><polyline points="7 4 12 13 17 4"/>
  </symbol>
  <symbol id="warning" viewBox="0 0 24 24">
    <path d="m21.73 18-8-14a2 2 0 0 0-3.48 0l-8 14A2 2 0 0 0 4 21h16a2 2 0 0 0 1.73-3Z"/><path d="M12 9v4"/><path d="M12 17h.01"/>
  </symbol>
  <symbol id="webpack" viewBox="0 0 24 24">
    <polygon points="12 2 22 7 22 17 12 22 2 17 2 7 12 2"/><polyline points="12 2 12 12"/><polyline points="22 7 12 12"/><polyline points="2 7 12 12"/>
  </symbol>
  <symbol id="wifi-off" viewBox="0 0 24 24">
    <line x1="2" x2="22" y1="2" y2="22"/><path d="M8.5 16.5a5 5 0 0 1 7 0"/><path d="M2 8.82a15 15 0 0 1 4.17-2.65"/><path d="M10.66 5c4.01-.36 8.14.9 11.34 3.76"/><path d="M16.85 11.25a10 10 0 0 1 2.22 1.68"/><path d="M5 13a10 10 0 0 1 5.24-2.76"/><line x1="12" x2="12.01" y1="20" y2="20"/>
  </symbol>
  <symbol id="wifi" viewBox="0 0 24 24">
    <path d="M5 12.55a11 11 0 0 1 14.08 0"/><path d="M1.42 9a16 16 0 0 1 21.16 0"/><path d="M8.53 16.11a6 6 0 0 1 6.95 0"/><line x1="12" x2="12.01" y1="20" y2="20"/>
  </symbol>
  <symbol id="windsurf" viewBox="0 0 24 24">
    <path d="M3 18c3-6 7-10 12-12"/><path d="M3 18h18"/><path d="M15 6l6 12"/>
  </symbol>
  <symbol id="youtube" viewBox="0 0 24 24">
    <path d="M2.5 17a24.12 24.12 0 0 1 0-10 2 2 0 0 1 1.4-1.4 49.56 49.56 0 0 1 16.2 0A2 2 0 0 1 21.5 7a24.12 24.12 0 0 1 0 10 2 2 0 0 1-1.4 1.4 49.55 49.55 0 0 1-16.2 0A2 2 0 0 1 2.5 17"/><polygon points="10 15 15 12 10 9 10 15"/>
  </symbol>
  <symbol id="zoom-in" viewBox="0 0 24 24">
    <circle cx="11" cy="11" r="8"/><line x1="21" x2="16.65" y1="21" y2="16.65"/><line x1="11" x2="11" y1="8" y2="14"/><line x1="8" x2="14" y1="11" y2="11"/>
  </symbol>
  <symbol id="zoom-out" viewBox="0 0 24 24">
    <circle cx="11" cy="11" r="8"/><line x1="21" x2="16.65" y1="21" y2="16.65"/><line x1="8" x2="14" y1="11" y2="11"/>
  </symbol>
</svg>